<?xml version="1.0" encoding="utf-8"?>
<!-- Generator: Adobe Illustrator 22.1.0, SVG Export Plug-In . SVG Version: 6.00 Build 0)  -->
<svg version="1.1" id="Ebene_1" xmlns="http://www.w3.org/2000/svg" xmlns:xlink="http://www.w3.org/1999/xlink" x="0px" y="0px"
	 viewBox="0 0 92 92" style="enable-background:new 0 0 92 92;" xml:space="preserve">
<style type="text/css">
	.st0{fill:#F56A6A;}
</style>
<path class="st0" d="M45.6,56.4L35.2,46l10.4-10.4l3.5,3.5l-7,6.9l3.5,3.5L56,39.1l-9-9c-0.7-0.7-1.9-0.7-2.7,0L29.6,44.7
	c-0.7,0.7-0.7,1.9,0,2.7L44.2,62c0.7,0.7,1.9,0.7,2.7,0l14.6-14.6c0.7-0.7,0.7-1.9,0-2.7l-2.1-2.1L45.6,56.4z"/>
<path class="st0" d="M61.6,32.6c0.2-1.5,1.3-3.1,3.7-3.1c2.4,0,3.6,1.5,3.6,3.1c0,1.5-0.9,2.3-1.7,2.6v0c1.2,0.4,2.2,1.3,2.2,3.1
	c0,2-1.3,3.8-4.1,3.8c-2.6,0-3.9-1.7-4.1-3.3h1.3c0.3,1.2,1.2,2.2,2.9,2.2c1.9,0,2.7-1.3,2.7-2.7c0-1.8-1.2-2.6-2.9-2.6h-0.8v-1.1
	h0.7c1.7,0,2.5-0.7,2.5-2.1c0-1.2-0.8-2-2.3-2c-1.6,0-2.2,0.8-2.5,1.9H61.6z"/>
</svg>
