<?xml version="1.0" encoding="UTF-8"?>
<svg xmlns="http://www.w3.org/2000/svg" xmlns:xlink="http://www.w3.org/1999/xlink" width="118pt" height="25pt" viewBox="0 0 118 25" version="1.1">
<g id="surface1">
<path style=" stroke:none;fill-rule:nonzero;fill:rgb(0%,0%,0%);fill-opacity:1;" d="M 16.296875 3.183594 C 16.296875 2.402344 16.335938 1.875 16.476562 1.660156 C 16.609375 1.464844 16.839844 1.40625 17.328125 1.367188 L 18.164062 1.289062 L 18.164062 0.683594 C 17.582031 0.722656 16.9375 0.761719 16.296875 0.761719 C 15.65625 0.761719 15.035156 0.722656 14.390625 0.683594 L 9.121094 11.914062 L 3.8125 0.683594 C 3.1875 0.722656 2.546875 0.761719 1.90625 0.761719 C 1.265625 0.761719 0.621094 0.722656 0 0.683594 L 0 1.289062 L 0.875 1.367188 C 1.363281 1.40625 1.597656 1.464844 1.714844 1.660156 C 1.867188 1.875 1.90625 2.402344 1.90625 3.183594 L 1.90625 12.246094 C 1.90625 13.007812 1.867188 13.535156 1.714844 13.75 C 1.597656 13.964844 1.363281 14.023438 0.875 14.0625 L 0 14.121094 L 0 14.726562 C 0.796875 14.707031 1.597656 14.667969 2.3125 14.667969 C 3.128906 14.667969 3.851562 14.707031 4.746094 14.726562 L 4.746094 14.121094 L 3.851562 14.0625 C 3.363281 14.023438 3.128906 13.964844 3.011719 13.75 C 2.859375 13.535156 2.820312 13.007812 2.820312 12.246094 L 2.820312 3.066406 L 2.859375 3.066406 L 8.441406 14.921875 L 8.847656 14.921875 C 9.199219 14.082031 9.550781 13.203125 9.917969 12.363281 L 13.496094 4.726562 C 13.769531 4.179688 14.042969 3.613281 14.351562 3.066406 L 14.390625 3.066406 L 14.390625 12.246094 C 14.390625 13.007812 14.351562 13.535156 14.21875 13.75 C 14.082031 13.964844 13.847656 14.023438 13.359375 14.0625 L 12.679688 14.121094 L 12.679688 14.726562 C 13.4375 14.6875 14.390625 14.667969 15.386719 14.667969 C 16.296875 14.667969 17.25 14.6875 18.28125 14.726562 L 18.28125 14.121094 L 17.328125 14.0625 C 16.839844 14.042969 16.609375 13.964844 16.476562 13.75 C 16.335938 13.535156 16.296875 13.007812 16.296875 12.246094 Z M 16.296875 3.183594 "/>
<path style=" stroke:none;fill-rule:nonzero;fill:rgb(0%,0%,0%);fill-opacity:1;" d="M 23.21875 9.21875 C 21.371094 9.550781 19.332031 10.136719 19.332031 12.460938 C 19.332031 14.101562 20.421875 14.902344 21.78125 14.902344 C 22.148438 14.902344 22.558594 14.863281 22.714844 14.746094 L 25.203125 13.007812 L 25.109375 14.726562 C 25.628906 14.707031 26.136719 14.667969 26.640625 14.667969 C 27.148438 14.667969 27.65625 14.707031 28.160156 14.726562 L 28.160156 14.121094 L 27.382812 14.082031 C 27.089844 14.0625 26.914062 13.984375 26.875 13.789062 C 26.835938 13.554688 26.816406 13.242188 26.816406 12.910156 L 26.816406 9.21875 C 26.816406 6.308594 26.039062 5.195312 23.53125 5.195312 C 22.890625 5.195312 22.070312 5.351562 21.195312 5.878906 L 20.125 6.523438 L 20.125 7.851562 L 20.65625 7.988281 L 20.921875 7.363281 C 21.039062 7.089844 21.136719 6.855469 21.253906 6.699219 C 21.527344 6.347656 21.800781 6.269531 22.675781 6.269531 C 24.421875 6.269531 25.203125 7.265625 25.203125 8.789062 L 25.203125 8.847656 Z M 25.203125 12.167969 C 25.125 12.285156 24.875 12.578125 24.5625 12.832031 C 23.902344 13.339844 23.257812 13.75 22.636719 13.75 C 21.820312 13.75 21.058594 13.125 21.058594 12.109375 C 21.058594 11.347656 21.566406 10.488281 22.265625 10.195312 C 23.296875 9.804688 24.195312 9.648438 25.203125 9.492188 Z M 25.203125 12.167969 "/>
<path style=" stroke:none;fill-rule:nonzero;fill:rgb(0%,0%,0%);fill-opacity:1;" d="M 30.839844 12.617188 C 30.839844 13.144531 30.820312 13.554688 30.722656 13.789062 C 30.644531 13.964844 30.433594 14.042969 30.082031 14.0625 L 29.171875 14.121094 L 29.171875 14.726562 C 29.886719 14.707031 30.683594 14.667969 31.679688 14.667969 C 32.671875 14.667969 33.46875 14.707031 34.183594 14.726562 L 34.183594 14.121094 L 33.273438 14.0625 C 32.921875 14.042969 32.710938 13.964844 32.632812 13.789062 C 32.535156 13.554688 32.515625 13.144531 32.515625 12.617188 L 32.515625 0.175781 L 32.339844 0 C 31.328125 0.410156 30.277344 0.585938 29.210938 0.761719 L 29.210938 1.328125 L 30.335938 1.328125 C 30.761719 1.328125 30.839844 1.679688 30.839844 2.148438 Z M 30.839844 12.617188 "/>
<path style=" stroke:none;fill-rule:nonzero;fill:rgb(0%,0%,0%);fill-opacity:1;" d="M 44.703125 5.273438 L 44.53125 5.195312 C 43.789062 5.527344 42.5625 5.898438 41.375 6.015625 L 41.375 6.582031 L 42.140625 6.582031 C 42.542969 6.582031 42.757812 6.660156 42.875 6.816406 C 42.972656 6.972656 43.011719 7.421875 43.011719 8.066406 L 43.011719 11.347656 C 43.011719 12.324219 41.765625 13.671875 40.464844 13.671875 C 38.617188 13.671875 38.265625 12.832031 38.265625 11.230469 L 38.265625 5.273438 L 38.089844 5.195312 C 37.351562 5.527344 36.148438 5.898438 34.960938 6.015625 L 34.960938 6.582031 L 35.699219 6.582031 C 36.128906 6.582031 36.324219 6.660156 36.441406 6.816406 C 36.539062 6.972656 36.578125 7.421875 36.578125 8.066406 L 36.578125 11.464844 C 36.578125 13.085938 36.578125 14.902344 39.414062 14.902344 C 40.386719 14.902344 41.109375 14.628906 41.671875 14.121094 L 43.011719 12.871094 C 43.011719 13.613281 42.972656 14.160156 42.933594 14.726562 C 43.460938 14.707031 44.042969 14.667969 44.628906 14.667969 C 45.191406 14.667969 45.777344 14.707031 46.28125 14.726562 L 46.28125 14.121094 L 45.445312 14.0625 C 45.113281 14.042969 44.878906 13.964844 44.800781 13.789062 C 44.722656 13.554688 44.703125 13.144531 44.703125 12.617188 Z M 44.703125 5.273438 "/>
<path style=" stroke:none;fill-rule:nonzero;fill:rgb(0%,0%,0%);fill-opacity:1;" d="M 48.484375 12.617188 C 48.484375 13.144531 48.46875 13.554688 48.390625 13.789062 C 48.3125 13.964844 48.078125 14.042969 47.742188 14.0625 L 46.832031 14.121094 L 46.832031 14.726562 C 47.53125 14.707031 48.351562 14.667969 49.320312 14.667969 C 50.3125 14.667969 51.109375 14.707031 51.832031 14.726562 L 51.832031 14.121094 L 50.914062 14.0625 C 50.585938 14.042969 50.351562 13.964844 50.273438 13.789062 C 50.195312 13.554688 50.175781 13.144531 50.175781 12.617188 L 50.175781 8.320312 C 50.175781 7.5 51.421875 6.425781 52.648438 6.425781 C 54.007812 6.425781 54.960938 7.324219 54.960938 8.984375 L 54.960938 14.726562 C 55.425781 14.707031 56.011719 14.667969 56.570312 14.667969 C 57.140625 14.667969 57.71875 14.707031 58.207031 14.726562 L 58.207031 14.121094 L 57.390625 14.0625 C 57.039062 14.042969 56.828125 13.964844 56.75 13.789062 C 56.671875 13.554688 56.648438 13.144531 56.648438 12.617188 L 56.648438 8.710938 C 56.648438 6.503906 55.679688 5.195312 53.324219 5.195312 C 52.53125 5.195312 52.140625 5.3125 51.695312 5.703125 L 50.214844 6.992188 L 50.175781 6.992188 L 50.175781 0.175781 L 50 0 C 48.988281 0.410156 47.921875 0.585938 46.851562 0.761719 L 46.851562 1.328125 L 47.976562 1.328125 C 48.429688 1.328125 48.484375 1.679688 48.484375 2.148438 Z M 48.484375 12.617188 "/>
<path style=" stroke:none;fill-rule:nonzero;fill:rgb(0%,0%,0%);fill-opacity:1;" d="M 64.382812 12.929688 L 62.070312 7.324219 C 61.933594 6.972656 61.894531 6.738281 61.894531 6.523438 C 61.894531 6.132812 62.167969 6.015625 62.558594 5.996094 L 63.316406 5.957031 L 63.316406 5.390625 C 62.539062 5.410156 61.777344 5.449219 60.980469 5.449219 C 60.203125 5.449219 59.449219 5.410156 58.648438 5.390625 L 58.648438 5.957031 L 59.019531 5.996094 C 59.46875 6.035156 59.734375 6.230469 60.070312 6.992188 L 63.375 15.15625 L 62.925781 16.386719 C 62.539062 17.304688 61.894531 18.945312 60.726562 19.023438 L 60.6875 19.023438 C 60.398438 19.023438 59.953125 18.808594 59.695312 18.574219 L 59.449219 18.574219 L 58.960938 20.078125 C 59.175781 20.214844 59.617188 20.390625 59.96875 20.390625 C 61.644531 20.390625 62.382812 19.375 63.023438 17.890625 L 67.109375 8.457031 C 67.867188 6.679688 68.316406 6.035156 68.796875 5.996094 L 69.34375 5.957031 L 69.34375 5.390625 C 68.703125 5.410156 68.082031 5.449219 67.441406 5.449219 C 66.796875 5.449219 66.175781 5.410156 65.53125 5.390625 L 65.53125 5.957031 L 66.058594 5.996094 C 66.601562 6.035156 66.894531 6.191406 66.894531 6.542969 C 66.894531 6.699219 66.855469 6.835938 66.777344 7.03125 Z M 64.382812 12.929688 "/>
<path style=" stroke:none;fill-rule:nonzero;fill:rgb(83.137255%,0%,0%);fill-opacity:1;" d="M 80.859375 5.332031 C 80.859375 5.234375 80.878906 5.15625 80.898438 5.097656 C 80.140625 4.609375 79.09375 4.375 78.160156 4.375 C 77.574219 4.375 77.011719 4.433594 76.464844 4.609375 C 74.367188 5.273438 71.332031 7.597656 71.332031 10.058594 C 71.332031 11.582031 72.246094 12.441406 73.570312 13.007812 C 70.492188 14.023438 67.636719 15.488281 67.636719 19.199219 C 67.636719 23.261719 71.175781 24.648438 74.65625 24.648438 C 75.726562 24.648438 77.496094 24.335938 78.523438 23.945312 C 80.898438 23.007812 84.320312 20.683594 84.320312 17.773438 C 84.320312 16.601562 83.664062 15.722656 82.554688 15.371094 C 82.476562 15.351562 82.378906 15.351562 82.300781 15.351562 L 82.300781 15.292969 L 84.496094 14.980469 C 86.367188 14.6875 88.078125 13.632812 88.078125 11.484375 C 88.078125 10.371094 87.648438 9.609375 86.597656 9.179688 L 85.996094 9.628906 C 86.910156 10.097656 87.085938 10.429688 87.085938 11.210938 C 87.085938 12.773438 85.023438 13.242188 83.875 13.4375 L 80.703125 13.945312 C 79.515625 14.140625 78.21875 14.296875 77.148438 15.410156 L 76.933594 18.222656 L 77.574219 18.28125 C 77.867188 17.089844 78.003906 15.917969 79.789062 15.917969 C 81.308594 15.917969 82.339844 16.972656 82.339844 18.457031 C 82.339844 21.289062 78.859375 23.320312 75.941406 23.320312 C 73.003906 23.320312 69.992188 21.933594 69.992188 18.59375 C 69.992188 15.292969 72.769531 13.613281 75.765625 13.613281 L 76.777344 13.613281 L 76.777344 13.554688 C 76.875 13.066406 77.1875 12.636719 77.359375 12.167969 C 77.207031 12.167969 77.070312 12.207031 76.953125 12.207031 C 75.140625 12.207031 73.375 11.328125 73.375 9.238281 C 73.375 7.148438 75.082031 5.800781 77.050781 5.800781 C 77.945312 5.800781 78.859375 6.269531 79.515625 6.71875 L 79.515625 8.496094 L 80.160156 8.496094 Z M 80.859375 5.332031 "/>
<path style=" stroke:none;fill-rule:nonzero;fill:rgb(0%,0%,0%);fill-opacity:1;" d="M 101.890625 22.441406 L 101.695312 22.246094 C 100.777344 22.929688 99.066406 23.457031 97.625 23.457031 C 93.640625 23.457031 90.996094 20.859375 90.996094 16.875 C 90.996094 13.4375 93 10.664062 96.773438 10.664062 C 97.507812 10.664062 98.390625 10.800781 99.027344 11.015625 C 99.960938 11.347656 100.757812 11.699219 100.757812 12.265625 L 100.757812 13.710938 L 101.382812 13.710938 C 101.382812 12.675781 101.558594 11.601562 101.773438 10.644531 C 100.796875 10.3125 98.988281 9.824219 97.125 9.824219 C 94.867188 9.824219 92.804688 10.507812 91.308594 11.757812 C 89.75 13.027344 88.859375 14.863281 88.859375 17.1875 C 88.859375 21.777344 92.105469 24.550781 96.929688 24.550781 C 98.15625 24.550781 100.15625 24.160156 101.324219 23.457031 Z M 101.890625 22.441406 "/>
<path style=" stroke:none;fill-rule:nonzero;fill:rgb(0%,0%,0%);fill-opacity:1;" d="M 107.738281 24.550781 C 110.8125 24.550781 112.992188 22.363281 112.992188 19.277344 C 112.992188 16.679688 111.007812 14.667969 108.4375 14.667969 C 105.191406 14.667969 103.304688 16.796875 103.304688 19.824219 C 103.304688 22.539062 105.113281 24.550781 107.582031 24.550781 Z M 107.972656 15.332031 C 109.898438 15.332031 111.125 17.558594 111.125 20.15625 C 111.125 22.03125 110.347656 23.886719 108.515625 23.886719 C 105.953125 23.886719 105.171875 21.074219 105.171875 18.945312 C 105.171875 17.070312 105.835938 15.332031 107.972656 15.332031 Z M 107.972656 15.332031 "/>
<path style=" stroke:none;fill-rule:nonzero;fill:rgb(0%,0%,0%);fill-opacity:1;" d="M 116.128906 24.238281 C 116.773438 24.238281 117.3125 23.671875 117.3125 23.066406 C 117.3125 22.460938 116.753906 21.894531 116.128906 21.894531 C 115.527344 21.894531 114.980469 22.460938 114.980469 23.066406 C 114.980469 23.671875 115.507812 24.238281 116.128906 24.238281 Z M 116.128906 24.238281 "/>
</g>
</svg>
